<svg width="103" height="92" viewBox="0 0 103 92" fill="none" xmlns="http://www.w3.org/2000/svg">
<path opacity="0.1" d="M0 58.197C0 39.3788 2.68594 25.0909 8.05782 15.3333C13.4297 5.57576 22.305 0.464654 34.6837 0L41.3401 13.5909C34.3333 14.2879 29.4286 17.6566 26.6259 23.697C23.8231 29.7374 22.4218 39.495 22.4218 52.9697H40.9898V92H0V58.197ZM61.6599 58.197C61.6599 39.3788 64.3458 25.0909 69.7177 15.3333C75.0896 5.57576 83.9649 0.464654 96.3435 0L103 13.5909C95.9932 14.2879 91.0884 17.6566 88.2857 23.697C85.483 29.7374 84.0816 39.495 84.0816 52.9697H102.65V92H61.6599V58.197Z" fill="white"/>
</svg>
