<svg width="40" height="60" viewBox="0 0 40 60" fill="none" xmlns="http://www.w3.org/2000/svg">
<g opacity="0.5">
<path d="M0.5 10C0.5 4.7533 4.7533 0.5 10 0.5H39.5V50C39.5 55.2467 35.2467 59.5 30 59.5H0.5V10Z" stroke="white"/>
<path d="M30.3536 30.3536C30.5488 30.1583 30.5488 29.8417 30.3536 29.6464L27.1716 26.4645C26.9763 26.2692 26.6597 26.2692 26.4645 26.4645C26.2692 26.6597 26.2692 26.9763 26.4645 27.1716L29.2929 30L26.4645 32.8284C26.2692 33.0237 26.2692 33.3403 26.4645 33.5355C26.6597 33.7308 26.9763 33.7308 27.1716 33.5355L30.3536 30.3536ZM10 30.5L30 30.5L30 29.5L10 29.5L10 30.5Z" fill="white"/>
</g>
</svg>
