<svg width="40" height="60" viewBox="0 0 40 60" fill="none" xmlns="http://www.w3.org/2000/svg">
<g opacity="0.5">
<path d="M0.5 10C0.5 4.7533 4.7533 0.5 10 0.5H39.5V50C39.5 55.2467 35.2467 59.5 30 59.5H0.5V10Z" stroke="white"/>
<path d="M9.64645 30.3536C9.45119 30.1583 9.45119 29.8417 9.64645 29.6464L12.8284 26.4645C13.0237 26.2692 13.3403 26.2692 13.5355 26.4645C13.7308 26.6597 13.7308 26.9763 13.5355 27.1716L10.7071 30L13.5355 32.8284C13.7308 33.0237 13.7308 33.3403 13.5355 33.5355C13.3403 33.7308 13.0237 33.7308 12.8284 33.5355L9.64645 30.3536ZM30 30.5L10 30.5L10 29.5L30 29.5L30 30.5Z" fill="white"/>
</g>
</svg>
